<svg width="100" height="78" viewBox="0 0 100 78" fill="none" xmlns="http://www.w3.org/2000/svg">
<path d="M0 11.1111H100C100 4.98264 95.0174 0 88.8889 0H11.1111C4.98264 0 0 4.98264 0 11.1111ZM0 16.6667V66.6667C0 72.7951 4.98264 77.7778 11.1111 77.7778H88.8889C95.0174 77.7778 100 72.7951 100 66.6667V16.6667H0ZM11.1111 64.809C11.1111 59.6875 15.2604 55.5556 20.3646 55.5556H40.7465C45.8681 55.5556 50 59.7049 50 64.809C50 65.8333 49.1667 66.6667 48.1424 66.6667H12.9687C11.9444 66.6667 11.1111 65.8333 11.1111 64.809ZM30.5556 27.7778C33.5024 27.7778 36.3286 28.9484 38.4123 31.0321C40.496 33.1159 41.6667 35.942 41.6667 38.8889C41.6667 41.8357 40.496 44.6619 38.4123 46.7456C36.3286 48.8294 33.5024 50 30.5556 50C27.6087 50 24.7825 48.8294 22.6988 46.7456C20.6151 44.6619 19.4444 41.8357 19.4444 38.8889C19.4444 35.942 20.6151 33.1159 22.6988 31.0321C24.7825 28.9484 27.6087 27.7778 30.5556 27.7778ZM61.1111 30.5556C61.1111 29.0278 62.3611 27.7778 63.8889 27.7778H86.1111C87.6389 27.7778 88.8889 29.0278 88.8889 30.5556C88.8889 32.0833 87.6389 33.3333 86.1111 33.3333H63.8889C62.3611 33.3333 61.1111 32.0833 61.1111 30.5556ZM61.1111 41.6667C61.1111 40.1389 62.3611 38.8889 63.8889 38.8889H86.1111C87.6389 38.8889 88.8889 40.1389 88.8889 41.6667C88.8889 43.1944 87.6389 44.4444 86.1111 44.4444H63.8889C62.3611 44.4444 61.1111 43.1944 61.1111 41.6667ZM61.1111 52.7778C61.1111 51.25 62.3611 50 63.8889 50H86.1111C87.6389 50 88.8889 51.25 88.8889 52.7778C88.8889 54.3056 87.6389 55.5556 86.1111 55.5556H63.8889C62.3611 55.5556 61.1111 54.3056 61.1111 52.7778Z" fill="#004173"/>
</svg>